<svg id="Layer_1" data-name="Layer 1" xmlns="http://www.w3.org/2000/svg" viewBox="0 0 579.923 497.739">
  <defs>
    <style>
      .cls-1 {
        fill: #8d8c97;
      }

      .cls-2 {
        fill: #a399ca;
      }

      .cls-3 {
        fill: #8f82bc;
      }

      .cls-4 {
        fill: #5a5b5e;
      }
    </style>
  </defs>
  <title>LogoHandbaggrande</title>
  <g>
    <path class="cls-1" d="M314.626,436.721V383.9H304.568c-76.171,0-138.141-61.971-138.141-138.144s61.97-138.14,138.141-138.14h10.058V54.789H304.568c-105.3,0-190.965,85.666-190.965,190.964S199.27,436.721,304.568,436.721Z" transform="translate(-113.603 -54.357)"/>
    <path class="cls-1" d="M502.559,54.357H464.691v52.826l37.869,0c76.172,0,138.141,61.969,138.141,138.139s-61.97,138.144-138.141,138.144H492.5v52.824h10.058c105.3,0,190.966-85.669,190.966-190.968S607.858,54.357,502.559,54.357Z" transform="translate(-113.603 -54.357)"/>
    <polygon class="cls-2" points="351.088 0 351.088 164.553 235.935 164.553 235.935 0 183.108 0 183.108 164.553 183.108 217.38 183.108 381.933 235.935 381.933 235.935 329.102 235.935 217.38 351.088 217.38 351.088 381.933 403.915 381.933 403.915 329.102 403.915 0 351.088 0"/>
  </g>
  <g>
    <path class="cls-3" d="M248.251,499.286V457.048h8.528v16.623h16.711V457.048h8.528v42.237h-8.528V480.817H256.779v18.469Z" transform="translate(-113.603 -54.357)"/>
    <path class="cls-3" d="M331.873,499.286H322.6l-3.688-9.595H302.024l-3.486,9.595h-9.047l16.451-42.237h9.018Zm-15.7-16.711-5.82-15.673-5.7,15.673Z" transform="translate(-113.603 -54.357)"/>
    <path class="cls-3" d="M339.433,499.286V457.048h8.3l17.287,28.207V457.048h7.923v42.237h-8.557l-17.028-27.544v27.544Z" transform="translate(-113.603 -54.357)"/>
    <path class="cls-3" d="M384.881,457.048h15.588a30.438,30.438,0,0,1,8.038.807,14.152,14.152,0,0,1,6.368,3.89,18.485,18.485,0,0,1,4.034,6.842,31.17,31.17,0,0,1,1.383,9.984,27.8,27.8,0,0,1-1.3,8.989,18.637,18.637,0,0,1-4.524,7.461,15.013,15.013,0,0,1-5.993,3.372,25.808,25.808,0,0,1-7.547.892H384.881Zm8.528,7.145V492.17h6.369a23.143,23.143,0,0,0,5.156-.4,7.873,7.873,0,0,0,3.443-1.757,8.939,8.939,0,0,0,2.234-4.076,27.569,27.569,0,0,0,.863-7.736,25.253,25.253,0,0,0-.863-7.521,9.659,9.659,0,0,0-2.42-4.09,8.113,8.113,0,0,0-3.948-1.989,38.667,38.667,0,0,0-7-.4Z" transform="translate(-113.603 -54.357)"/>
    <path class="cls-3" d="M430.5,457.048h16.883a48.656,48.656,0,0,1,7.476.418,10.655,10.655,0,0,1,7.651,5.272,9.58,9.58,0,0,1,1.3,4.941,10.013,10.013,0,0,1-5.935,9.163,11.106,11.106,0,0,1,5.935,3.831,10.172,10.172,0,0,1,2.074,6.367,12.539,12.539,0,0,1-1.34,5.6A11.289,11.289,0,0,1,460.883,497a12.1,12.1,0,0,1-5.719,2q-2.132.23-10.285.288H430.5Zm8.528,7.03v9.768h5.589q4.984,0,6.194-.145a5.638,5.638,0,0,0,3.444-1.513,4.459,4.459,0,0,0,1.253-3.3,4.637,4.637,0,0,0-1.08-3.184,4.9,4.9,0,0,0-3.212-1.485q-1.27-.142-7.29-.143Zm0,16.8V492.17h7.894a38.528,38.528,0,0,0,5.848-.26,5.287,5.287,0,0,0,3.1-1.686,5.187,5.187,0,0,0,1.2-3.586,5.51,5.51,0,0,0-.922-3.227,5.21,5.21,0,0,0-2.665-1.931q-1.742-.605-7.562-.6Z" transform="translate(-113.603 -54.357)"/>
    <path class="cls-3" d="M514.122,499.286h-9.276l-3.688-9.595H484.273l-3.485,9.595h-9.047l16.451-42.237h9.019Zm-15.7-16.711L492.6,466.9l-5.7,15.673Z" transform="translate(-113.603 -54.357)"/>
    <path class="cls-3" d="M541.245,483.757V476.64h18.383v16.826a23.166,23.166,0,0,1-7.766,4.567,28.272,28.272,0,0,1-10.3,1.974,23.119,23.119,0,0,1-11.553-2.781,17.679,17.679,0,0,1-7.405-7.952,25.7,25.7,0,0,1-2.478-11.251,24.318,24.318,0,0,1,2.766-11.727,18.633,18.633,0,0,1,8.1-7.865,21.853,21.853,0,0,1,10.114-2.1q7.866,0,12.288,3.3a14.9,14.9,0,0,1,5.69,9.119l-8.471,1.584a8.936,8.936,0,0,0-3.357-4.911,10.138,10.138,0,0,0-6.151-1.8,11.554,11.554,0,0,0-8.889,3.545q-3.3,3.542-3.3,10.515,0,7.52,3.342,11.279a11.157,11.157,0,0,0,8.759,3.76,14.665,14.665,0,0,0,5.374-1.052,18.334,18.334,0,0,0,4.625-2.55v-5.357Z" transform="translate(-113.603 -54.357)"/>
  </g>
  <g>
    <path class="cls-4" d="M249.051,515.723H262.24a25.754,25.754,0,0,1,6.8.683,11.963,11.963,0,0,1,5.388,3.29,15.633,15.633,0,0,1,3.413,5.79,26.382,26.382,0,0,1,1.17,8.447,23.476,23.476,0,0,1-1.1,7.606,15.75,15.75,0,0,1-3.827,6.315,12.685,12.685,0,0,1-5.071,2.852,21.779,21.779,0,0,1-6.387.756H249.051Zm7.216,6.046V545.44h5.388a19.683,19.683,0,0,0,4.364-.34,6.667,6.667,0,0,0,2.914-1.488,7.571,7.571,0,0,0,1.889-3.45,23.309,23.309,0,0,0,.731-6.545,21.345,21.345,0,0,0-.731-6.362,8.193,8.193,0,0,0-2.048-3.463,6.879,6.879,0,0,0-3.34-1.681,32.717,32.717,0,0,0-5.924-.341Z" transform="translate(-113.603 -54.357)"/>
    <path class="cls-4" d="M310.1,551.462V515.723h26.5v6.046H317.312v7.924h17.943v6.021H317.312v9.726h19.966v6.022Z" transform="translate(-113.603 -54.357)"/>
    <path class="cls-4" d="M366.533,539.834l7.021-.683a8.56,8.56,0,0,0,2.572,5.192A7.774,7.774,0,0,0,381.355,546a8.044,8.044,0,0,0,5.254-1.475,4.392,4.392,0,0,0,1.767-3.45,3.255,3.255,0,0,0-.743-2.157,5.942,5.942,0,0,0-2.6-1.548q-1.268-.439-5.778-1.56-5.8-1.438-8.143-3.536a9.3,9.3,0,0,1-3.291-7.191,9.19,9.19,0,0,1,1.548-5.108,9.694,9.694,0,0,1,4.462-3.62,17.876,17.876,0,0,1,7.033-1.244q6.729,0,10.13,2.951a10.414,10.414,0,0,1,3.57,7.874l-7.215.318a6.125,6.125,0,0,0-1.987-3.961,7.269,7.269,0,0,0-4.571-1.207,8.245,8.245,0,0,0-4.925,1.293,2.6,2.6,0,0,0-1.146,2.218,2.747,2.747,0,0,0,1.073,2.17q1.365,1.146,6.631,2.388a35.125,35.125,0,0,1,7.789,2.572,10.043,10.043,0,0,1,3.949,3.633,10.628,10.628,0,0,1,1.426,5.691,10.521,10.521,0,0,1-1.707,5.753,10.21,10.21,0,0,1-4.826,3.986,20.228,20.228,0,0,1-7.777,1.3q-6.777,0-10.41-3.132T366.533,539.834Z" transform="translate(-113.603 -54.357)"/>
    <path class="cls-4" d="M426.407,551.462V515.723h7.216v35.739Z" transform="translate(-113.603 -54.357)"/>
    <path class="cls-4" d="M482.088,538.321V532.3h15.554v14.237a19.569,19.569,0,0,1-6.569,3.864,23.9,23.9,0,0,1-8.716,1.67,19.556,19.556,0,0,1-9.777-2.352,14.949,14.949,0,0,1-6.265-6.729,21.741,21.741,0,0,1-2.1-9.52,20.568,20.568,0,0,1,2.34-9.921,15.762,15.762,0,0,1,6.85-6.656,18.487,18.487,0,0,1,8.558-1.78q6.655,0,10.4,2.792a12.606,12.606,0,0,1,4.815,7.716l-7.167,1.342a7.577,7.577,0,0,0-2.84-4.158,8.592,8.592,0,0,0-5.205-1.523,9.782,9.782,0,0,0-7.521,3q-2.792,3-2.792,8.9,0,6.363,2.828,9.545a9.445,9.445,0,0,0,7.411,3.181,12.45,12.45,0,0,0,4.548-.889,15.614,15.614,0,0,0,3.912-2.157v-4.536Z" transform="translate(-113.603 -54.357)"/>
    <path class="cls-4" d="M529.334,551.462V515.723h7.021l14.627,23.866V515.723h6.7v35.739h-7.24l-14.409-23.306v23.306Z" transform="translate(-113.603 -54.357)"/>
  </g>
</svg>
